<?xml version="1.0" encoding="utf-8"?>
<svg viewBox="0 0 500 500" width="500" height="500" xmlns="http://www.w3.org/2000/svg">
  <g transform="matrix(0.1, 0, -0.001814, -0.1, -18.193201, 501.950958)" fill="#000000" stroke="none" style="">
    <path d="M2445 4439 c-79 -47 -281 -164 -655 -379 -140 -81 -415 -240 -610 -353 l-355 -205 0 -987 0 -988 375 -216 c664 -384 1244 -718 1286 -741 l40 -23 850 490 849 490 0 988 0 987 -130 76 c-71 41 -218 125 -325 187 -107 62 -307 178 -445 257 -694 401 -794 458 -802 458 -4 0 -39 -19 -78 -41z m355 -172 c146 -84 416 -240 600 -347 184 -106 434 -250 555 -321 l220 -127 3 -956 2 -955 -67 -39 c-111 -64 -312 -181 -578 -334 -137 -79 -416 -241 -620 -359 -203 -117 -379 -214 -390 -214 -11 0 -128 63 -260 139 -523 303 -622 360 -935 541 -179 103 -355 205 -393 226 l-67 40 2 956 3 955 95 55 c124 72 571 331 775 448 88 51 297 172 465 269 168 97 310 176 315 176 6 0 129 -69 275 -153z" style="fill: rgb(255, 255, 255);"/>
    <path d="M2330 3742 c-102 -60 -264 -154 -360 -209 -96 -56 -276 -160 -400 -231 l-225 -130 -3 -690 -2 -690 102 -59 c126 -73 487 -281 826 -477 140 -80 256 -146 258 -146 3 0 85 46 182 103 97 57 363 210 590 341 l412 238 -2 690 -3 690 -160 92 c-780 451 -1015 586 -1022 586 -4 0 -91 -49 -193 -108z m590 -153 c184 -106 430 -247 545 -314 l210 -121 3 -672 2 -671 -92 -54 c-123 -71 -650 -375 -858 -495 -91 -52 -169 -98 -175 -103 -5 -5 -17 -9 -26 -9 -9 0 -171 89 -360 199 -189 109 -445 257 -569 329 l-225 130 0 672 0 673 245 142 c135 78 394 228 575 333 l330 191 30 -19 c17 -9 181 -104 365 -211z" style="fill: rgb(255, 255, 255);"/>
    <path d="M2285 3594 c-126 -74 -368 -214 -537 -311 l-308 -178 0 -625 0 -625 173 -99 c94 -55 287 -166 427 -246 140 -81 304 -176 364 -210 60 -35 115 -63 122 -63 6 0 108 55 225 123 465 269 639 369 746 431 l113 64 0 625 0 625 -132 77 c-73 42 -203 116 -288 166 -473 273 -664 382 -669 381 -3 0 -109 -61 -236 -135z m469 -100 c122 -70 228 -133 236 -140 12 -12 10 -14 -15 -14 -50 0 -146 -53 -201 -111 -97 -102 -151 -201 -214 -397 l-36 -112 -33 107 c-73 243 -194 422 -326 485 -33 15 -72 28 -87 28 -16 0 -28 3 -28 8 0 4 78 51 173 105 94 53 197 112 227 131 30 19 62 35 69 35 8 1 114 -56 235 -125z m-607 -229 c132 -66 248 -260 320 -538 27 -106 28 -109 9 -123 -17 -12 -23 -11 -51 6 -46 28 -90 26 -111 -5 -22 -33 -7 -68 40 -96 30 -17 55 -63 43 -76 -3 -2 -65 -19 -140 -38 -145 -37 -299 -56 -387 -49 -195 16 -323 123 -322 270 0 60 17 96 64 141 41 39 147 90 205 99 35 5 43 10 38 23 -34 87 -44 210 -24 272 42 125 188 177 316 114z m994 -10 c23 -17 51 -47 62 -68 36 -69 32 -205 -8 -307 -4 -12 6 -18 49 -27 75 -16 157 -58 201 -103 120 -123 51 -313 -133 -370 -81 -25 -249 -27 -371 -6 -96 18 -272 64 -284 75 -13 13 4 39 39 60 47 28 62 62 40 96 -20 31 -68 34 -110 6 -23 -15 -34 -17 -51 -9 l-23 10 29 110 c77 288 189 476 322 543 45 23 62 26 124 23 60 -3 78 -8 114 -33z m-550 -703 c25 -23 32 -36 33 -71 1 -36 -4 -47 -32 -72 -43 -39 -90 -39 -133 -1 -25 23 -32 36 -33 71 -1 36 4 47 32 72 43 39 90 39 133 1z m-937 -197 c121 -71 369 -76 613 -12 l52 14 -62 -69 c-190 -211 -268 -360 -269 -508 0 -47 5 -89 15 -112 9 -21 15 -38 13 -38 -2 0 -111 62 -242 138 l-239 139 -3 279 -2 279 42 -43 c23 -24 60 -54 82 -67z m1854 -450 c-12 -10 -400 -236 -454 -263 l-21 -11 18 52 c57 163 -30 376 -243 603 -46 48 -74 84 -64 81 68 -26 282 -59 381 -59 171 -1 275 33 355 117 l35 36 3 -272 c2 -210 -1 -276 -10 -284z m-772 383 c276 -285 352 -520 218 -676 -44 -52 -107 -77 -173 -69 -68 8 -125 39 -196 108 l-61 58 -53 -53 c-131 -132 -281 -152 -372 -49 -97 112 -81 267 48 462 67 100 269 313 292 309 11 -2 18 -20 23 -58 6 -54 32 -90 63 -90 31 0 57 36 62 85 5 44 23 75 43 75 4 0 52 -46 106 -102z" style="fill: rgb(255, 255, 255);"/>
  </g>
</svg>